# xmcd
#
# Track frame offsets:
#	150
#	15489
#	32476
#	50513
#	66743
#	80578
#	100216
#	117022
#	131549
#	143382
#	159573
#	176272
#	187324
#	202927
#	222030
#	236307
#	249521
#	262053
#
# Disc length: 3738 seconds
#
# Revision: 2
# Processed by: cddbd v1.5.2PL0 Copyright (c) Steve Scherf et al.
# Submitted via: audiograbber 1.83.01
#
DISCID=f40e9812
DTITLE=Various Artist - CDX Volume 548 (June 18, 2012)
DYEAR=2012
DGENRE=Country
TTITLE0=Craig Morgan - Corn Star
TTITLE1=Casey James - Crying On A Suitcase
TTITLE2=Rodney Atkins - Just Wanna Rock and Roll [radio edit]
TTITLE3=Trace Adkins - Them Lips (On Mine)
TTITLE4=Marty Stuart (with Buck Trent) - Tear The Woodpile Down 
TTITLE5=Shooter Jennings - The Real Me
TTITLE6=Tim Culpepper - Pourin' Whiskey On Pain
TTITLE7=Vince Hatfield - The World Goes 'Round
TTITLE8=Kelly Parkes - All Cried Out 
TTITLE9=Amy Ames - Do Drop In
TTITLE10=Joanna Mosca - Dream On Savannah
TTITLE11=Maggie Rose - I Ain't Your Mama
TTITLE12=Cloverdayle - Like We Were Kids Again
TTITLE13=Tyler Barham (featuring Cassey Walker) - Meet Me In Montana
TTITLE14=John Karl - Redneck Rich (Hillbilly Happy)
TTITLE15=Chris Weaver Band - Standing In Line
TTITLE16=Levi Riggs - There's Still A Place For That
TTITLE17=Denae Gardner - Welcome To America
EXTD=
EXTT0=
EXTT1=
EXTT2=
EXTT3=
EXTT4=
EXTT5=
EXTT6=
EXTT7=
EXTT8=
EXTT9=
EXTT10=
EXTT11=
EXTT12=
EXTT13=
EXTT14=
EXTT15=
EXTT16=
EXTT17=
PLAYORDER=
